<svg width="436" height="310" viewBox="0 0 436 310" fill="none" xmlns="http://www.w3.org/2000/svg">
  <defs>
    <linearGradient id="bg" x1="0" y1="0" x2="0" y2="1">
      <stop offset="0" stop-color="#f3f4f6"/>
      <stop offset="1" stop-color="#e5e7eb"/>
    </linearGradient>
    <linearGradient id="cardShadow" x1="0" y1="0" x2="0" y2="1">
      <stop offset="0" stop-color="#000000" stop-opacity="0.10"/>
      <stop offset="1" stop-color="#000000" stop-opacity="0"/>
    </linearGradient>
  </defs>

  <!-- fundo geral -->
  <rect width="436" height="420" fill="url(#bg)"/>

  <!-- sombra abaixo do card -->
  <rect x="48" y="300" width="340" height="110" rx="20" fill="url(#cardShadow)"/>

  <!-- CARD AUMENTADO (altura aumentada de 280 → 340) -->
  <rect x="48" y="40" width="340" height="340" rx="12" fill="#ffffff" stroke="#e5e7eb"/>

  <!-- abas -->
  <rect x="80" y="64" width="32" height="4" rx="2" fill="#9ca3af"/>
  <rect x="122" y="64" width="32" height="4" rx="2" fill="#9ca3af"/>
  <rect x="164" y="64" width="32" height="4" rx="2" fill="#9ca3af"/>

  <!-- texto -->
  <rect x="80" y="90" width="180" height="6" rx="3" fill="#e5e7eb"/>
  <rect x="80" y="104" width="160" height="6" rx="3" fill="#e5e7eb"/>
  <rect x="80" y="118" width="120" height="6" rx="3" fill="#e5e7eb"/>

  <!-- primeira linha de quadrados -->
  <rect x="80" y="150" width="120" height="80" rx="8" fill="#f9fafb" stroke="#f3f4f6"/>
  <rect x="208" y="150" width="120" height="80" rx="8" fill="#f9fafb" stroke="#f3f4f6"/>

  <!-- segunda linha de quadrados -->
  <rect x="80"  y="250" width="120" height="80" rx="8" fill="#f9fafb" stroke="#f3f4f6"/>
  <rect x="208" y="250" width="120" height="80" rx="8" fill="#f9fafb" stroke="#f3f4f6"/>
</svg>
